<svg width="1374" height="274" viewBox="0 0 1374 274" fill="none" xmlns="http://www.w3.org/2000/svg">
<path d="M0.803101 217L52.4231 49.38C55.7098 39.1333 61.1231 31.4 68.6631 26.18C76.3964 20.7667 85.0964 18.06 94.7631 18.06C104.43 18.06 113.13 20.7667 120.863 26.18C128.596 31.4 134.106 39.1333 137.393 49.38L189.013 217H145.803L134.493 176.98L55.3231 177.27L44.0131 217H0.803101ZM88.6731 61.85L66.3431 139.28H123.473L101.433 61.85C100.273 57.9833 98.1464 56.05 95.0531 56.05C91.9598 56.05 89.8331 57.9833 88.6731 61.85ZM210.247 145.95V105.64H176.607V70.55H211.407L218.947 32.85H253.747V70.55H372.937V105.64H253.747V142.18C253.747 173.79 265.347 183.94 305.077 183.94C332.337 183.94 354.377 179.88 374.967 175.53L383.377 210.04C361.337 215.55 331.757 220.77 301.597 220.77C239.247 220.77 210.247 201.05 210.247 145.95ZM380.814 133.77V70.55H424.024V127.39C424.024 155.81 439.104 166.83 483.474 166.83C511.894 166.83 540.894 162.48 570.474 155.52V70.55H613.974V188C613.974 252.38 577.724 273.26 495.944 273.26C459.694 273.26 419.384 267.75 391.254 259.92L399.374 226.28C430.984 234.4 463.754 239.33 498.554 239.33C554.814 239.33 574.244 226.57 572.504 190.61L571.634 185.1C542.924 194.96 508.124 202.79 473.324 202.79C406.624 202.79 380.814 181.62 380.814 133.77ZM670.791 270.65H627.291V70.55H665.281L668.761 92.88C698.341 79.54 734.591 67.65 772.001 67.65C826.811 67.65 859.001 89.11 859.001 142.18C859.001 199.6 816.951 219.9 753.151 219.9C723.861 219.9 694.861 216.42 670.791 212.07V270.65ZM764.171 103.61C736.911 103.61 703.851 110.86 670.791 121.3V179.01C696.311 181.91 728.211 184.81 755.471 184.81C794.621 184.81 815.792 173.5 815.792 143.05C815.792 115.21 801.002 103.61 764.171 103.61ZM909.831 44.74C904.997 49.5733 899.101 51.99 892.141 51.99C885.181 51.99 879.187 49.5733 874.161 44.74C869.134 39.7133 866.621 33.6233 866.621 26.47C866.621 19.51 869.134 13.5167 874.161 8.48999C879.187 3.46332 885.181 0.949981 892.141 0.949981C899.101 0.949981 904.997 3.46332 909.831 8.48999C914.857 13.5167 917.371 19.51 917.371 26.47C917.371 33.6233 914.857 39.7133 909.831 44.74ZM871.551 73.45H912.731V217H871.551V73.45ZM924.847 143.34C924.847 89.4 961.967 66.78 1050.71 66.78C1087.25 66.78 1122.34 71.71 1147.57 77.8L1138.58 112.6C1118.28 108.25 1088.99 103.61 1044.62 103.61C988.937 103.61 968.057 112.6 968.057 143.34C968.057 174.37 988.937 183.36 1044.62 183.36C1088.99 183.36 1118.28 178.72 1138.58 174.37L1147.57 209.46C1122.34 215.26 1088.7 220.19 1050.71 220.19C961.967 220.19 924.847 197.28 924.847 143.34ZM1373.8 77.51V217H1335.81L1332.33 194.96C1302.17 208.3 1266.21 219.9 1229.09 219.9C1175.15 219.9 1142.09 198.44 1142.09 144.79C1142.09 86.21 1186.75 67.65 1252.58 67.65C1300.43 67.65 1342.19 72.58 1373.8 77.51ZM1185.3 143.34C1185.3 172.63 1200.67 183.94 1237.21 183.94C1266.5 183.94 1298.11 176.69 1330.3 165.96V107.67C1305.36 104.77 1274.62 102.74 1248.23 102.74C1207.92 102.74 1185.3 113.76 1185.3 143.34Z" fill="#ebebeb"/>
</svg>
