<svg width="189" height="37" viewBox="0 0 189 37" fill="none" xmlns="http://www.w3.org/2000/svg">
<path d="M0.170311 29L7.29031 5.88C7.74364 4.46667 8.49031 3.4 9.53031 2.68C10.597 1.93333 11.797 1.56 13.1303 1.56C14.4636 1.56 15.6636 1.93333 16.7303 2.68C17.797 3.4 18.557 4.46667 19.0103 5.88L26.1303 29H20.1703L18.6103 23.48L7.69031 23.52L6.13031 29H0.170311ZM12.2903 7.6L9.21031 18.28H17.0903L14.0503 7.6C13.8903 7.06667 13.597 6.8 13.1703 6.8C12.7436 6.8 12.4503 7.06667 12.2903 7.6ZM29.0591 19.2V13.64H24.4191V8.8H29.2191L30.2591 3.6H35.0591V8.8H51.4991V13.64H35.0591V18.68C35.0591 23.04 36.6591 24.44 42.1391 24.44C45.8991 24.44 48.9391 23.88 51.7791 23.28L52.9391 28.04C49.8991 28.8 45.8191 29.52 41.6591 29.52C33.0591 29.52 29.0591 26.8 29.0591 19.2ZM52.5856 17.52V8.8H58.5456V16.64C58.5456 20.56 60.6256 22.08 66.7456 22.08C70.6656 22.08 74.6656 21.48 78.7456 20.52V8.8H84.7456V25C84.7456 33.88 79.7456 36.76 68.4656 36.76C63.4656 36.76 57.9056 36 54.0256 34.92L55.1456 30.28C59.5056 31.4 64.0256 32.08 68.8256 32.08C76.5856 32.08 79.2656 30.32 79.0256 25.36L78.9056 24.6C74.9456 25.96 70.1456 27.04 65.3456 27.04C56.1456 27.04 52.5856 24.12 52.5856 17.52ZM92.5825 36.4H86.5825V8.8H91.8225L92.3025 11.88C96.3825 10.04 101.383 8.4 106.543 8.4C114.103 8.4 118.543 11.36 118.543 18.68C118.543 26.6 112.743 29.4 103.943 29.4C99.9025 29.4 95.9025 28.92 92.5825 28.32V36.4ZM105.463 13.36C101.703 13.36 97.1425 14.36 92.5825 15.8V23.76C96.1025 24.16 100.503 24.56 104.262 24.56C109.663 24.56 112.583 23 112.583 18.8C112.583 14.96 110.543 13.36 105.463 13.36ZM125.553 0.239998V6.04H119.593V0.239998H125.553ZM119.593 29V8.8H125.553V29H119.593ZM126.609 18.84C126.609 11.4 131.729 8.28 143.969 8.28C149.009 8.28 153.849 8.96 157.329 9.8L156.089 14.6C153.289 14 149.249 13.36 143.129 13.36C135.449 13.36 132.569 14.6 132.569 18.84C132.569 23.12 135.449 24.36 143.129 24.36C149.249 24.36 153.289 23.72 156.089 23.12L157.329 27.96C153.849 28.76 149.209 29.44 143.969 29.44C131.729 29.44 126.609 26.28 126.609 18.84ZM188.533 9.76V29H183.293L182.813 25.96C178.653 27.8 173.693 29.4 168.573 29.4C161.133 29.4 156.573 26.44 156.573 19.04C156.573 10.96 162.733 8.4 171.813 8.4C178.413 8.4 184.173 9.08 188.533 9.76ZM162.533 18.84C162.533 22.88 164.653 24.44 169.693 24.44C173.733 24.44 178.093 23.44 182.533 21.96V13.92C179.093 13.52 174.853 13.24 171.213 13.24C165.653 13.24 162.533 14.76 162.533 18.84Z" fill="#1a1a1a"/>
</svg>
