<svg width="203" height="228" viewBox="0 0 203 228" fill="none" xmlns="http://www.w3.org/2000/svg">
<path d="M101.625 227.41C93.9781 227.41 87.4681 224.723 82.0947 219.35C76.9281 213.977 74.3447 207.57 74.3447 200.13C74.3447 192.69 76.9281 186.283 82.0947 180.91C87.4681 175.537 93.9781 172.85 101.625 172.85C109.065 172.85 115.368 175.537 120.535 180.91C125.908 186.283 128.595 192.69 128.595 200.13C128.595 207.57 125.908 213.977 120.535 219.35C115.368 224.723 109.065 227.41 101.625 227.41Z" fill="black"/>
<path d="M7.36328 199L58.9833 31.38C62.27 21.1333 67.6833 13.4 75.2233 8.17998C82.9566 2.76665 91.6566 0.0599858 101.323 0.0599858C110.99 0.0599858 119.69 2.76665 127.423 8.17998C135.157 13.4 140.667 21.1333 143.953 31.38L195.573 199H152.363L141.053 158.98L61.8833 159.27L50.5733 199H7.36328ZM95.2333 43.85L72.9033 121.28H130.033L107.993 43.85C106.833 39.9833 104.707 38.05 101.613 38.05C98.52 38.05 96.3933 39.9833 95.2333 43.85Z" fill="black"/>
</svg>
